<svg xmlns="http://www.w3.org/2000/svg" version="1.1" xmlns:xlink="http://www.w3.org/1999/xlink" xmlns:svgjs="http://svgjs.com/svgjs" width="512" height="512" x="0" y="0" viewBox="0 0 512 512" style="enable-background:new 0 0 512 512" xml:space="preserve" class=""><g><path fill="#00ddc3" d="M255.831 52.469c-2.836-4.929-6.156-9.7-10.053-14.182C213.104.701 154.819.011 152.353 0a14.997 14.997 0 0 0-14.931 12.979c-.332 2.442-7.759 60.251 24.916 97.836 32.207 37.048 89.391 38.301 93.662 38.292-.035 0-.061-.004-.104-.004.026 0 .066.004.104.004l10.001-45.695L256 52.19c-.054.094-.115.185-.169.279z" data-original="#00ddc3" class=""></path><path fill="#00c1ae" d="M374.239 12.979A14.999 14.999 0 0 0 359.308 0c-2.466.011-60.75.701-93.426 38.288-3.821 4.396-7.082 9.074-9.882 13.903v96.912c3.576-.029 60.985-1.09 93.322-38.287 32.676-37.586 25.249-95.395 24.917-97.837z" data-original="#00c1ae" class=""></path><path fill="#ff667a" d="M24.01 164.5C4.055 197.84-1.553 233.2.348 271l15.656 14.928L3.409 301C22.345 423.166 117.122 512 256 512l10.001-34.856V149.103L256 117.91C171.56 64.015 69.932 87.744 24.01 164.5z" data-original="#ff667a" class=""></path><path fill="#ff4471" d="M488 164.5c-45.259-75.669-146.39-101.189-232-46.59V512c138.204 0 233.529-88.024 252.592-211l-12.038-15.824L511.652 271c1.905-37.878-3.742-73.215-23.652-106.5z" data-original="#ff4471" class=""></path><path fill="#ea315a" d="m256 204.757-5.216-5.202c-5.858-5.858-15.357-5.857-21.215 0-5.859 5.858-5.859 15.355 0 21.213l15.817 15.816a15 15 0 0 0 10.607 4.394l10.008-20.231z" data-original="#ea315a" class=""></path><path fill="#d22048" d="M282.431 199.542c-5.858-5.858-15.357-5.858-21.215 0L256 204.757v36.22a15.002 15.002 0 0 0 10.6-4.393l15.83-15.829c5.86-5.859 5.86-15.356.001-21.213z" data-original="#d22048" class=""></path><path fill="#ea315a" d="M.348 271c.51 10.16 1.53 20.17 3.06 30h88.108v45c0 8.28 6.721 15 15.001 15 8.291 0 15.001-6.72 15.001-15v-45h44.904v15c0 8.28 6.721 15 15.001 15 8.291 0 15.001-6.72 15.001-15v-15h44.574v45c0 8.28 6.721 15 15.001 15L265 347.393v-66.428L256 271z" data-original="#ea315a" class=""></path><path fill="#d22048" d="M256 271v90c8.281 0 15.001-6.72 15.001-15v-45h45.004v15c0 8.28 6.721 15 15.001 15 8.281 0 15.001-6.72 15.001-15v-15h44.954v45c0 8.28 6.721 15 15.001 15 8.281 0 15.001-6.72 15.001-15v-45h87.628c1.53-9.83 2.55-19.84 3.06-30z" data-original="#d22048" class=""></path></g></svg>